P1
# This is an example bitmap of the letter "J"
25 6
1000110000111101110000110
1000110000100001001000010
0101010000111001001000010
0010010000100001110000010
0010010000100001000010010
0010011110100001000001100